<?xml version="1.0" encoding="UTF-8"?>
<!DOCTYPE svg PUBLIC "-//W3C//DTD SVG 1.1//EN" "http://www.w3.org/Graphics/SVG/1.1/DTD/svg11.dtd">
<svg xmlns="http://www.w3.org/2000/svg" version="1.1" width="512px" height="512px" style="shape-rendering:geometricPrecision; text-rendering:geometricPrecision; image-rendering:optimizeQuality; fill-rule:evenodd; clip-rule:evenodd" xmlns:xlink="http://www.w3.org/1999/xlink">
<g><path style="opacity:0.997" fill="#dbdada" d="M 277.5,72.5 C 265.488,71.5929 255.988,75.9262 249,85.5C 238.524,113.748 228.691,142.081 219.5,170.5C 211.938,150.125 197.271,140.958 175.5,143C 160.695,148.813 152.195,159.647 150,175.5C 146.352,151.508 132.519,140.674 108.5,143C 91.1003,149.595 80.6003,162.095 77,180.5C 75.503,194.018 78.1696,206.684 85,218.5C 101.547,242.047 122.713,260.213 148.5,273C 149.5,273.667 150.5,273.667 151.5,273C 167.087,264.899 181.421,255.065 194.5,243.5C 178.208,293.377 161.541,343.044 144.5,392.5C 111.498,392.667 78.4983,392.5 45.5,392C 34.3333,388.833 27.1667,381.667 24,370.5C 23.3333,262.167 23.3333,153.833 24,45.5C 27.1667,34.3333 34.3333,27.1667 45.5,24C 115.5,23.3333 185.5,23.3333 255.5,24C 267.882,27.6027 275.049,35.7694 277,48.5C 277.5,56.4931 277.666,64.4931 277.5,72.5 Z"/></g>
<g><path style="opacity:1" fill="#f24826" d="M 50.5,43.5 C 57.1013,42.1338 61.768,44.4672 64.5,50.5C 67.2347,44.3005 71.9014,42.1338 78.5,44C 87.1371,49.9757 88.6371,57.4757 83,66.5C 77.8968,72.7657 71.7302,77.7657 64.5,81.5C 56.6182,77.4537 50.1182,71.7871 45,64.5C 41.6322,55.9449 43.4655,48.9449 50.5,43.5 Z"/></g>
<g><path style="opacity:0.997" fill="#ececec" d="M 277.5,72.5 C 342.046,93.2931 406.379,114.793 470.5,137C 484.148,144.467 489.648,155.967 487,171.5C 453.333,271.167 419.667,370.833 386,470.5C 378.533,484.148 367.033,489.648 351.5,487C 286.201,465.456 221.201,443.123 156.5,420C 147.986,412.805 143.986,403.638 144.5,392.5C 161.541,343.044 178.208,293.377 194.5,243.5C 203.031,219.241 211.364,194.908 219.5,170.5C 228.691,142.081 238.524,113.748 249,85.5C 255.988,75.9262 265.488,71.5929 277.5,72.5 Z"/></g>
<g><path style="opacity:1" fill="#2e3844" d="M 285.5,97.5 C 287.604,97.2011 289.604,97.5344 291.5,98.5C 296.931,104.359 301.098,111.025 304,118.5C 307.141,134.006 300.974,141.506 285.5,141C 283.667,139.833 282.167,138.333 281,136.5C 279.55,139.008 278.383,141.675 277.5,144.5C 281.058,146.355 284.725,148.022 288.5,149.5C 290.208,154.962 288.208,157.128 282.5,156C 274.059,153.279 265.726,150.279 257.5,147C 256.018,144.408 256.352,142.075 258.5,140C 262.785,140.696 267.119,141.529 271.5,142.5C 271.756,140.063 272.423,137.729 273.5,135.5C 261.528,134.696 256.361,128.363 258,116.5C 261.23,108.937 266.73,103.771 274.5,101C 278.254,99.6912 281.921,98.5246 285.5,97.5 Z"/></g>
<g><path style="opacity:1" fill="#f24624" d="M 219.5,170.5 C 211.364,194.908 203.031,219.241 194.5,243.5C 181.421,255.065 167.087,264.899 151.5,273C 150.5,273.667 149.5,273.667 148.5,273C 122.713,260.213 101.547,242.047 85,218.5C 78.1696,206.684 75.503,194.018 77,180.5C 80.6003,162.095 91.1003,149.595 108.5,143C 132.519,140.674 146.352,151.508 150,175.5C 152.195,159.647 160.695,148.813 175.5,143C 197.271,140.958 211.938,150.125 219.5,170.5 Z"/></g>
<g><path style="opacity:1" fill="#2d3742" d="M 336.5,213.5 C 337.239,213.369 337.906,213.536 338.5,214C 352.444,228.046 363.277,244.213 371,262.5C 378.277,282.79 374.111,300.29 358.5,315C 347.71,322.342 336.377,323.342 324.5,318C 320.946,314.446 317.779,311.279 315,308.5C 312.358,315.412 310.358,322.412 309,329.5C 316.075,332.192 323.242,334.692 330.5,337C 336.666,340.656 338.166,345.822 335,352.5C 332.868,355.316 330.035,356.649 326.5,356.5C 305.287,350.373 284.287,343.54 263.5,336C 257.975,333.081 256.142,328.581 258,322.5C 260.633,317.268 264.799,315.435 270.5,317C 277.692,319.847 285.025,321.847 292.5,323C 295.49,316.224 297.49,309.391 298.5,302.5C 280.9,307.617 268.734,301.617 262,284.5C 256.932,266.031 261.765,250.531 276.5,238C 294.424,224.639 314.424,216.472 336.5,213.5 Z"/></g>
<g><path style="opacity:1" fill="#2e3843" d="M 353.5,408.5 C 358.223,407.553 362.056,408.886 365,412.5C 370.674,419.18 374.174,426.847 375.5,435.5C 374.513,447.328 368.18,452.828 356.5,452C 354.36,451.027 352.693,449.527 351.5,447.5C 346.397,454.792 348.397,458.626 357.5,459C 361.721,462.854 361.054,465.687 355.5,467.5C 346.207,464.459 337.041,461.125 328,457.5C 327.333,455.5 327.333,453.5 328,451.5C 332.31,450.529 336.476,451.195 340.5,453.5C 342.291,451.336 343.624,448.836 344.5,446C 344.333,445.5 344.167,445 344,444.5C 333.623,446.635 328.456,442.302 328.5,431.5C 329.49,423.665 333.49,417.831 340.5,414C 344.893,412.044 349.226,410.211 353.5,408.5 Z"/></g>
</svg>
